<svg width="18" height="17" viewBox="0 0 18 17" fill="none" xmlns="http://www.w3.org/2000/svg">
<path d="M12.7643 2.36346H2.45492C2.23792 2.36346 2.02981 2.27726 1.87637 2.12381C1.72292 1.97037 1.63672 1.76226 1.63672 1.54526C1.63672 1.32825 1.72292 1.12014 1.87637 0.966698C2.02981 0.813254 2.23792 0.727051 2.45492 0.727051H12.7643C15.6542 0.727051 18.0008 3.07366 18.0008 5.96357V13.0001C18.0008 13.2171 17.9146 13.4252 17.7612 13.5787C17.6077 13.7321 17.3996 13.8183 17.1826 13.8183C16.9656 13.8183 16.7575 13.7321 16.604 13.5787C16.4506 13.4252 16.3644 13.2171 16.3644 13.0001V5.96357C16.3644 3.97696 14.7509 2.36346 12.7643 2.36346Z" fill="#F14C4C"/>
<path fill-rule="evenodd" clip-rule="evenodd" d="M12.764 3.99951H1.96369C0.87957 3.99951 0 4.9519 0 6.12685V14.1453C0 15.3202 0.87957 16.2726 1.96369 16.2726H12.764C13.8481 16.2726 14.7277 15.3202 14.7277 14.1453V6.12685C14.7277 4.9519 13.8481 3.99951 12.764 3.99951Z" fill="#F14C4C"/>
<path d="M9.7748 13.1045C9.31129 13.1166 8.97284 12.5881 8.73256 12.2019C8.54081 11.8935 7.90021 10.7818 8.03642 8.66287C8.11032 7.51242 8.18094 6.41715 8.93042 6.04547C9.34124 5.84161 9.93725 5.86493 10.1369 6.12563C10.3188 6.36322 10.0592 6.6512 9.90795 7.47764C9.79491 8.09566 9.82181 8.5802 9.83973 8.9017C9.88149 9.65194 10.0514 10.2602 10.1522 10.574C10.4727 11.5735 10.7895 11.7652 10.6712 12.2456C10.5678 12.665 10.1845 13.0941 9.77502 13.1047L9.7748 13.1045Z" fill="white"/>
<path d="M6.41601 7.37502C6.47352 7.2861 6.55266 7.13993 6.59311 6.94482C6.63137 6.76033 6.62 6.60437 6.60426 6.50338C6.67816 6.4736 7.16288 6.28641 7.58244 6.52629C7.66028 6.57085 7.84568 6.67683 7.92286 6.89693C8.02562 7.19011 7.85465 7.45143 7.82841 7.49016C7.90231 7.4937 8.0394 7.51078 8.17451 7.59678C8.45284 7.77377 8.48104 8.08902 8.4841 8.13275C8.56041 8.14712 8.78823 8.19938 8.97385 8.39678C9.12996 8.56294 9.17303 8.74285 9.18637 8.81927C9.09279 8.79303 8.88661 8.7491 8.65027 8.81927C8.54532 8.8505 8.46311 8.89569 8.40386 8.93525C8.45262 8.99043 8.5228 9.08372 8.56565 9.21407C8.59277 9.29694 8.67126 9.58408 8.49176 9.85769C8.47623 9.88143 8.30723 10.128 7.98517 10.189C7.65809 10.2508 7.45432 10.1309 7.29515 9.78773C7.19961 9.78773 7.10603 9.79502 7.01421 9.78627C6.77698 9.76378 6.63115 9.64801 6.62569 9.40584C6.62416 9.33588 6.62131 9.22948 6.69368 9.17201C6.77436 9.10808 6.90205 9.1416 7.02514 9.17409C7.16419 9.21074 7.26083 9.26862 7.29166 9.28778C7.55905 9.45436 7.72084 9.71756 7.78774 9.83895C7.86667 9.70777 7.9808 9.4731 7.90209 9.24926C7.64191 8.50839 5.52048 8.5973 5.51567 8.32119C5.51501 8.27913 5.56311 8.21229 5.84953 8.12609C5.79115 8.07778 5.6357 7.962 5.39913 7.9316C5.18115 7.9037 5.01149 7.96305 4.93978 7.99282C4.73776 7.76877 4.6726 7.46684 4.7793 7.2126C4.93103 6.85133 5.36678 6.74076 5.65275 6.76283C5.69123 6.76575 5.82723 6.78074 5.97983 6.86132C6.27784 7.01832 6.38694 7.29277 6.41601 7.37481V7.37502ZM7.90624 8.63916C7.97227 8.65331 8.02737 8.62958 8.03721 8.625C8.15156 8.57273 8.18829 8.41531 8.19113 8.28538C8.19419 8.14857 8.16467 7.98491 8.04923 7.92307C8.03262 7.91411 7.9773 7.88788 7.91062 7.89912C7.76872 7.92327 7.6852 8.10068 7.67493 8.23478C7.66203 8.40303 7.75626 8.60688 7.90603 8.63895L7.90624 8.63916Z" fill="#F14C4C"/>
<path d="M6.15287 7.36859C6.21037 7.2803 6.28952 7.13517 6.32997 6.94173C6.36823 6.7587 6.35686 6.60378 6.34112 6.50362C6.41502 6.47405 6.89973 6.28832 7.3193 6.52632C7.39713 6.57046 7.58254 6.67562 7.65972 6.89425C7.76248 7.18535 7.5915 7.44459 7.56527 7.48312C7.65491 7.49207 7.7815 7.51706 7.91137 7.5889C8.25616 7.77984 8.33662 8.14174 8.35061 8.21149C8.41073 8.21461 8.6449 8.23356 8.82221 8.4141C8.91163 8.50509 8.95252 8.60254 8.97198 8.66355C8.88102 8.64981 8.68534 8.63232 8.46518 8.71519C8.30841 8.77412 8.20172 8.86032 8.14094 8.91759C8.18969 8.97235 8.25987 9.0648 8.30273 9.19432C8.32984 9.27657 8.40833 9.56142 8.22883 9.83316C8.21331 9.85689 8.0443 10.1016 7.72225 10.1619C7.39517 10.2234 7.1914 10.1043 7.03223 9.76361C6.93668 9.76361 6.84311 9.7709 6.75128 9.76215C6.51406 9.73987 6.36823 9.62493 6.36276 9.38464C6.35751 9.15267 6.50094 9.04377 6.72154 9.01066C7.14155 8.94778 7.47453 9.14872 7.66518 9.63472C7.6877 9.53768 7.70497 9.38547 7.63916 9.2293C7.49661 8.89114 7.05256 8.74205 6.72701 8.761C6.10455 8.79744 5.68521 9.46293 5.59578 9.96538C5.50002 10.5034 5.76217 11.0365 6.26153 11.313C6.62622 11.515 7.00971 11.4944 7.37527 11.342C7.63938 11.2318 7.88207 11.0711 8.12454 10.9191C8.61669 10.6103 9.04937 10.5655 9.38148 10.8027C9.69042 11.0232 9.78028 11.4979 9.60821 11.9939C9.45145 12.4456 9.14863 12.7893 8.74787 13.0634C7.01386 14.249 4.66636 13.5483 3.96344 11.6347C3.52835 10.4497 4.0885 9.00379 5.25252 8.30832C5.36293 8.24231 5.47509 8.17901 5.58638 8.11467C5.48318 8.09301 5.32117 8.07135 5.12637 8.09676C4.95211 8.11945 4.81547 8.1713 4.72539 8.21357C4.42323 7.95516 4.36442 7.55017 4.51615 7.20805C4.63203 6.94693 5.06187 6.73642 5.38961 6.76161C5.42809 6.76453 5.56408 6.77952 5.71669 6.85927C6.01469 7.01502 6.12379 7.28759 6.15287 7.36901V7.36859ZM7.6431 8.62336C7.70913 8.63731 7.76422 8.61378 7.77406 8.60941C7.88841 8.55756 7.92514 8.40119 7.92798 8.27229C7.93105 8.13653 7.90153 7.9739 7.78609 7.91269C7.76947 7.90394 7.71416 7.8777 7.64747 7.88895C7.50558 7.9129 7.42206 8.08905 7.41178 8.22232C7.39888 8.38932 7.49311 8.59171 7.64288 8.62357L7.6431 8.62336Z" fill="white"/>
</svg>
