<svg width="16" height="17" viewBox="0 0 16 17" fill="none" xmlns="http://www.w3.org/2000/svg">
<path d="M2.13325 16.5C1.64436 16.5 1.22599 16.3261 0.878135 15.9782C0.530283 15.6304 0.356061 15.2117 0.355469 14.7222V2.27778C0.355469 1.78889 0.529691 1.37052 0.878135 1.02267C1.22658 0.674815 1.64495 0.500593 2.13325 0.5H7.46657C7.71843 0.5 7.92969 0.585333 8.10035 0.756C8.27102 0.926666 8.35606 1.13763 8.35546 1.38889C8.35487 1.64015 8.26954 1.85141 8.09946 2.02267C7.92939 2.19392 7.71843 2.27896 7.46657 2.27778H2.13325V14.7222H7.46657C7.71843 14.7222 7.92969 14.8075 8.10035 14.9782C8.27102 15.1489 8.35606 15.3598 8.35546 15.6111C8.35487 15.8624 8.26954 16.0736 8.09946 16.2449C7.92939 16.4161 7.71843 16.5012 7.46657 16.5H2.13325ZM12.9555 9.38888H6.57769C6.32583 9.38888 6.11487 9.30355 5.9448 9.13288C5.77472 8.96222 5.68939 8.75125 5.6888 8.49999C5.68821 8.24874 5.77354 8.03777 5.9448 7.86711C6.11606 7.69644 6.32702 7.61111 6.57769 7.61111H12.9555L11.2888 5.94444C11.1258 5.78148 11.0443 5.58148 11.0443 5.34444C11.0443 5.1074 11.1258 4.9 11.2888 4.72222C11.4518 4.54444 11.6592 4.4517 11.911 4.444C12.1629 4.43629 12.3777 4.52163 12.5555 4.7L15.7332 7.87777C15.911 8.05555 15.9999 8.26296 15.9999 8.49999C15.9999 8.73703 15.911 8.94444 15.7332 9.12222L12.5555 12.3C12.3777 12.4778 12.1667 12.5631 11.9226 12.556C11.6784 12.5489 11.4672 12.4561 11.2888 12.2778C11.1258 12.1 11.0482 11.889 11.0559 11.6449C11.0636 11.4007 11.1486 11.1969 11.311 11.0333L12.9555 9.38888Z" fill="#818181"/>
</svg>
